<svg width="136" height="139" viewBox="0 0 136 139" fill="none" xmlns="http://www.w3.org/2000/svg">
  <path d="M105.315 101.412C102.757 101.418 100.224 100.917 97.8602 99.9386C95.4968 98.9602 93.3505 97.5236 91.5451 95.7116L71.6567 75.8259C70.9526 75.1571 70.0186 74.7842 69.0475 74.7842C68.0764 74.7842 67.1424 75.1571 66.4383 75.8259L46.4742 95.7874C44.6694 97.6002 42.5233 99.0374 40.1597 100.016C37.7961 100.994 35.262 101.495 32.7038 101.488H28.783L53.9749 126.677C61.8356 134.536 74.5926 134.536 82.4533 126.677L107.712 101.412H105.315ZM32.7038 31.0735C37.9127 31.0735 42.7996 33.1 46.4742 36.7741L66.4383 56.7356C66.7814 57.0792 67.1889 57.3517 67.6374 57.5377C68.0859 57.7237 68.5667 57.8194 69.0523 57.8194C69.5378 57.8194 70.0186 57.7237 70.4671 57.5377C70.9157 57.3517 71.3231 57.0792 71.6662 56.7356L91.5546 36.8498C93.3582 35.0382 95.5028 33.6016 97.8647 32.6232C100.227 31.6448 102.759 31.1438 105.315 31.1493H107.712L82.4533 5.8944C78.6759 2.12014 73.5543 0 68.2141 0C62.8739 0 57.7523 2.12014 53.9749 5.8944L28.783 31.083L32.7038 31.0735Z" fill="black"/>
  <path d="M128.477 53.5123L113.19 38.2336C112.847 38.3744 112.48 38.4484 112.109 38.4516H105.157C101.563 38.4516 98.0444 39.9112 95.5122 42.4514L75.5965 62.3554C74.7108 63.2452 73.6579 63.9513 72.4983 64.4331C71.3387 64.915 70.0952 65.163 68.8394 65.163C67.5836 65.163 66.3401 64.915 65.1805 64.4331C64.0209 63.9513 62.968 63.2452 62.0823 62.3554L42.0907 42.3661C39.5258 39.8132 36.0561 38.3757 32.4363 38.3663H23.901C23.5472 38.3635 23.1969 38.296 22.8673 38.1672L7.52273 53.5123C-0.348721 61.3792 -0.348721 74.1462 7.52273 82.0225L22.8673 97.3581C23.1932 97.227 23.5403 97.1563 23.8915 97.1496H32.4363C36.0401 97.1496 39.5491 95.6994 42.0907 93.1593L62.0728 73.1699C63.8961 71.435 66.3171 70.4673 68.8347 70.4673C71.3522 70.4673 73.7732 71.435 75.5965 73.1699L95.5122 93.074C98.0444 95.6141 101.563 97.0643 105.157 97.0643H112.109C112.488 97.0643 112.858 97.159 113.19 97.2917L128.477 82.013C136.349 74.1462 136.349 61.3792 128.477 53.5123Z" fill="black"/>
  </svg>
